<?xml version="1.0" standalone="no"?>
<!DOCTYPE svg PUBLIC "-//W3C//DTD SVG 20010904//EN"
 "http://www.w3.org/TR/2001/REC-SVG-20010904/DTD/svg10.dtd">
<svg version="1.0" xmlns="http://www.w3.org/2000/svg"
 width="512.000000pt" height="512.000000pt" viewBox="0 0 512.000000 512.000000"
 preserveAspectRatio="xMidYMid meet">
<metadata>
Created by potrace 1.11, written by Peter Selinger 2001-2013
</metadata>
<g transform="translate(0.000000,512.000000) scale(0.100000,-0.100000)"
fill="#000000" stroke="none">
<path d="M272 4893 c-62 -30 -59 21 -58 -980 l1 -913 33 -32 32 -33 683 0
c375 -1 693 1 706 4 14 2 76 54 140 116 64 62 171 166 238 231 67 66 127 132
133 147 6 19 10 259 10 708 0 735 1 721 -53 751 -34 20 -1825 20 -1865 1z"/>
<path d="M2877 4891 c-65 -33 -62 15 -62 -977 0 -852 1 -902 18 -928 10 -15
31 -33 47 -40 21 -9 202 -12 712 -11 618 0 686 2 708 16 14 10 130 120 258
245 l232 229 0 697 c0 418 -4 707 -10 722 -5 14 -21 33 -37 43 -26 17 -78 18
-931 19 -804 0 -907 -1 -935 -15z"/>
<path d="M2074 3121 c-154 -71 -105 -303 64 -303 77 0 135 41 157 112 40 128
-98 248 -221 191z"/>
<path d="M4675 3120 c-145 -73 -105 -289 56 -303 140 -12 226 152 138 262 -46
56 -129 74 -194 41z"/>
<path d="M272 2293 c-60 -29 -57 24 -58 -958 0 -506 3 -914 8 -933 6 -21 21
-40 41 -52 31 -19 56 -20 717 -20 518 1 690 4 707 13 35 20 474 450 489 479
12 22 14 145 14 713 0 741 1 727 -53 757 -33 19 -1826 20 -1865 1z"/>
<path d="M2880 2294 c-16 -7 -37 -25 -47 -40 -17 -26 -18 -77 -18 -928 0
-1003 -3 -961 65 -985 41 -14 1366 -16 1402 -2 13 5 60 44 105 88 149 143 352
344 378 375 l25 30 0 703 0 703 -29 31 c-16 17 -40 32 -53 32 -12 1 -423 2
-911 3 -673 1 -895 -1 -917 -10z"/>
<path d="M2075 524 c-61 -32 -95 -79 -97 -137 -5 -129 126 -212 241 -153 64
34 98 122 74 191 -32 94 -137 142 -218 99z"/>
<path d="M4667 519 c-96 -51 -113 -184 -34 -259 72 -68 175 -59 239 21 106
132 -54 318 -205 238z"/>
</g>
</svg>
